<?xml version="1.0" encoding="UTF-8"?>
<svg id="Layer_2" data-name="Layer 2" xmlns="http://www.w3.org/2000/svg" viewBox="0 0 241.22 209.58">
  <defs>
    <style>
      .cls-1 {
        fill: none;
        stroke: #f4ad21;
        stroke-linecap: round;
        stroke-linejoin: round;
        stroke-width: 10px;
      }
    </style>
  </defs>
  <g id="_Ñëîé_2" data-name="Ñëîé 2">
    <g>
      <g>
        <path class="cls-1" d="M192.23,29.31h26.11c9.88,0,17.88,8.01,17.88,17.88v100.97c0,9.88-8.01,17.88-17.88,17.88H22.88c-9.88,0-17.88-8.01-17.88-17.88V47.19c0-9.88,8.01-17.88,17.88-17.88h145.61"/>
        <polyline class="cls-1" points="5 142.49 152.73 142.49 201.21 142.49 236.22 142.49"/>
        <g>
          <line class="cls-1" x1="87.02" y1="166.04" x2="82.86" y2="187.06"/>
          <line class="cls-1" x1="154.2" y1="166.04" x2="158.36" y2="187.06"/>
        </g>
        <path class="cls-1" d="M142.7,188.97h49.99c8.62,0,15.61,6.99,15.61,15.61H32.92c0-8.62,6.99-15.61,15.61-15.61h94.17Z"/>
      </g>
      <g>
        <path class="cls-1" d="M125.08,79.79h0c6.1,5.1,6.91,14.19,1.81,20.29h0c-7.81,9.34-21.72,10.58-31.06,2.77l-5.19-4.34,5.19-1.29c4.78-1.19,8.24-5.32,8.58-10.23h0c.38-5.47,4.61-9.98,10.08-10.5,3.69-.35,7.52.72,10.59,3.29Z"/>
        <path class="cls-1" d="M129.66,85.44c11.08-7.01,21.4-15.01,30.86-23.92,4.05-3.82,7.95-7.8,11.68-11.95l33.82-37.54c1.62-1.8,1.75-4.34.31-5.87-.72-.77-1.72-1.16-2.77-1.16-1.06,0-2.17.37-3.11,1.12l-39.5,31.51c-14.5,11.56-27.31,25.01-38.24,40.13"/>
      </g>
      <path class="cls-1" d="M90.63,98.53l-11.89-20.6c-2.69-4.65-9.4-4.65-12.09,0l-37.07,64.21"/>
      <path class="cls-1" d="M5,105.57l22.6-19.12c3-2.54,7.46-2.35,10.23.44l14.96,15.05"/>
    </g>
  </g>
</svg>